<svg version="1.1" id="Layer_1" xmlns="http://www.w3.org/2000/svg" xmlns:xlink="http://www.w3.org/1999/xlink" x="0px" y="0px"
	 width="100%" viewBox="0 0 208 87" enable-background="new 0 0 208 87" xml:space="preserve">
<path fill="#FCFDFD" opacity="1.000000" stroke="none" 
	d="
M31.000000,1.000000 
	C90.288307,1.000000 149.576614,1.000000 208.932465,1.000000 
	C208.932465,29.932837 208.932465,58.865864 208.932465,87.899445 
	C139.786453,87.899445 70.572701,87.899445 1.179477,87.899445 
	C1.179477,59.000862 1.179477,30.000553 1.179477,1.000000 
	C7.070179,1.000000 13.065714,1.000000 19.535004,1.260254 
	C20.013716,1.693964 20.018671,1.867420 20.014233,2.371266 
	C20.012281,3.143259 20.019728,3.584862 20.015678,4.264005 
	C20.004185,4.501545 19.932125,4.971691 19.558243,5.063628 
	C17.638811,7.954192 16.437155,10.718791 20.036442,13.204927 
	C20.110806,13.394132 20.237413,13.780504 20.164436,14.070133 
	C20.068748,14.557585 20.046038,14.755407 20.060570,15.348171 
	C20.407356,17.847029 20.716898,19.950945 21.006948,22.341497 
	C20.961277,23.010565 20.935095,23.392998 20.705976,23.943195 
	C20.288271,24.386749 20.073502,24.662539 19.528730,25.007399 
	C18.803991,26.051191 18.409254,27.025915 17.649990,28.038040 
	C15.191566,29.395948 13.097666,30.716457 10.773968,32.176315 
	C10.344088,32.794125 10.144008,33.272579 9.731865,33.858231 
	C9.519802,33.965427 9.055283,34.065769 8.672852,34.103477 
	C8.312445,36.786182 8.334470,39.431187 8.498345,42.386337 
	C8.779318,43.129570 8.918439,43.562653 9.181612,44.312088 
	C10.538063,45.076786 11.770461,45.525124 13.037619,46.327538 
	C15.034171,49.125767 16.995966,51.569920 19.267826,53.997520 
	C19.781736,53.944954 19.985582,53.908936 20.378290,53.952858 
	C20.567152,54.032806 20.913469,54.252594 21.013290,54.583679 
	C22.409733,55.268135 23.706354,55.621506 25.052948,56.314503 
	C27.788187,56.622032 31.698759,57.681080 32.902328,56.329529 
	C35.368839,53.559746 36.383152,49.496765 38.400871,45.961372 
	C40.576965,45.367508 42.347561,44.778492 44.477036,44.147179 
	C45.552303,44.165012 46.268700,44.225140 47.009697,44.660393 
	C49.130287,48.811367 52.185383,46.769871 54.937618,46.228046 
	C55.073471,46.201302 54.929531,44.753334 54.930344,43.637711 
	C54.642342,42.542934 54.339867,41.777603 54.028786,40.577934 
	C54.095547,38.410999 54.170918,36.678402 54.495514,34.704433 
	C55.153824,32.307388 55.562912,30.151718 56.307976,27.970551 
	C58.428844,27.290718 60.213745,26.636379 62.368675,25.974003 
	C63.478840,25.955181 64.218971,25.944397 65.163094,26.191437 
	C66.842010,24.732576 68.316940,23.015894 69.791862,21.299212 
	C68.874870,20.863800 67.957878,20.428391 67.028275,19.566494 
	C66.999275,17.432980 66.982887,15.725949 67.207710,13.841255 
	C66.625404,13.121461 65.801895,12.579330 64.526260,12.033323 
	C61.056698,12.035481 58.039242,12.041516 54.871765,11.822114 
	C54.324612,11.569213 53.927486,11.541747 53.530361,11.514280 
	C53.663090,11.999558 53.795818,12.484837 53.954105,13.262655 
	C54.024834,13.745683 54.070000,13.936172 54.058342,14.341067 
	C54.001518,14.555475 53.830070,14.964624 53.503052,15.030718 
	C52.791206,16.065111 52.406376,17.033409 51.660706,18.065655 
	C50.867382,19.425295 50.434895,20.720991 49.627262,22.024357 
	C48.501820,22.020634 47.751518,22.009241 47.001259,21.582176 
	C46.194000,17.880138 47.789207,13.539546 42.533112,12.008395 
	C41.419323,12.008041 40.748158,11.945022 40.091724,12.016794 
	C35.461029,12.523104 32.114849,11.710004 32.882435,5.794514 
	C32.988136,4.979888 31.611105,3.972865 30.688133,3.013963 
	C30.455736,2.973011 30.010586,2.816226 30.128372,2.584208 
	C30.497438,1.901459 30.748718,1.450729 31.000000,1.000000 
M155.595520,84.567818 
	C156.032867,85.026680 156.470215,85.485535 157.497528,85.933487 
	C158.000397,85.433449 158.503265,84.933418 159.530930,83.925453 
	C160.986801,82.153534 162.442673,80.381622 163.898544,78.609711 
	C163.541245,78.320328 163.183929,78.030945 162.826614,77.741562 
	C161.710892,78.435677 160.595169,79.129799 159.181427,79.281967 
	C158.801224,79.194115 158.421036,79.106262 157.482620,79.005486 
	C157.296555,79.000801 157.110489,78.996117 156.743546,78.291290 
	C155.882034,78.387062 155.020508,78.482834 154.077988,77.707771 
	C153.774994,76.483810 153.472000,75.259850 153.168991,74.035889 
	C152.663940,74.097641 152.158890,74.159386 151.653839,74.221130 
	C151.653839,77.877029 151.653839,81.532921 151.653839,85.972900 
	C152.397247,84.807777 152.730942,84.284782 153.828796,83.792610 
	C154.551270,83.878220 155.273727,83.963837 156.007996,83.993927 
	C156.007996,83.993927 155.951279,83.991623 155.595520,84.567818 
M124.578339,81.993881 
	C125.163704,81.830406 125.749062,81.666939 127.117645,81.586922 
	C128.898285,77.981422 127.555168,76.947418 123.287560,78.199875 
	C122.557854,78.919098 121.828148,79.638329 121.165970,79.606392 
	C120.859222,79.180412 120.552475,78.754433 120.245728,78.328445 
	C119.654907,79.209358 119.064095,80.090263 118.384140,80.964119 
	C118.384140,80.964119 118.350266,81.046875 117.852821,80.561195 
	C117.473946,79.769295 117.095070,78.977394 116.492104,77.717110 
	C116.160927,78.813744 115.985367,79.395058 115.106674,80.007980 
	C114.438850,80.734459 113.771034,81.460945 113.123970,82.791885 
	C113.664558,83.802246 114.205154,84.812614 115.429314,85.910583 
	C116.286613,85.606926 117.143913,85.303261 118.660767,84.876999 
	C119.033676,83.918503 119.406578,82.960007 120.621750,81.284409 
	C120.789597,80.956100 120.957451,80.627800 121.956131,80.505470 
	C122.620682,80.971527 123.285240,81.437592 124.578339,81.993881 
M138.010483,85.784264 
	C138.365540,85.419144 138.720596,85.054024 139.836349,84.930939 
	C140.831070,85.261147 141.825775,85.591354 143.712494,85.870682 
	C144.005295,85.818092 144.298111,85.765511 145.167938,85.790504 
	C147.920746,84.498703 147.734879,82.681221 146.005554,80.060555 
	C145.049850,80.008026 144.094147,79.955490 142.971909,79.277962 
	C141.631638,78.767258 140.291367,78.256554 138.271622,77.802284 
	C137.790070,78.198364 137.308517,78.594437 136.094894,79.187332 
	C134.988129,81.670349 133.123123,84.281616 138.010483,85.784264 
M111.258522,50.915810 
	C111.258522,57.174427 111.258522,63.433044 111.258522,69.624985 
	C114.587761,69.624985 117.170616,69.624985 119.839272,69.624985 
	C120.054100,67.032730 120.240807,64.779793 120.462669,62.102718 
	C128.597885,62.102718 136.389084,62.273071 144.169281,62.053410 
	C151.523911,61.845760 156.999008,56.423210 157.675446,49.184017 
	C158.309555,42.397903 153.728622,35.046776 146.863190,34.582401 
	C135.185852,33.792542 123.416344,34.364983 111.067589,34.364983 
	C111.067589,38.762424 111.067589,42.884529 110.303665,47.003250 
	C109.794601,46.987450 109.285530,46.971649 108.459221,46.299110 
	C107.386200,39.880917 103.760780,34.928490 97.365036,34.519886 
	C85.853127,33.784431 74.260521,34.312115 62.593449,34.312115 
	C62.593449,46.292274 62.593449,57.984192 62.593449,69.620926 
	C65.560547,69.620926 68.142227,69.620926 70.779419,69.620926 
	C70.976257,67.039803 71.147881,64.789345 71.340164,62.268070 
	C80.326691,62.480450 89.365158,59.515083 96.114532,68.661392 
	C98.342987,71.681244 103.333427,71.860352 108.026070,70.023155 
	C105.114174,66.917351 102.565811,64.199280 99.797958,61.247108 
	C105.343880,59.373699 107.048386,54.732288 109.303413,50.034584 
	C109.893074,50.020859 110.482742,50.007133 111.258522,50.915810 
M193.388474,41.923397 
	C195.924759,41.923397 198.461044,41.923397 201.438766,41.923397 
	C199.528732,36.316158 196.299545,34.004631 191.420807,33.985493 
	C184.426376,33.958057 177.429489,33.868633 170.437912,34.012554 
	C164.318588,34.138519 160.812866,37.490616 160.558914,43.616665 
	C160.324615,49.268154 160.313858,54.947884 160.590332,60.596302 
	C160.873535,66.382118 164.495911,69.805710 170.236862,69.918762 
	C177.395111,70.059738 184.560318,70.046486 191.718842,69.909134 
	C196.708984,69.813393 200.749939,66.829453 201.436340,62.179428 
	C202.000565,58.357071 201.551422,54.385128 201.551422,50.455563 
	C197.501587,50.455563 194.057892,50.455563 189.427307,50.455563 
	C190.302597,53.938320 191.042999,56.884415 192.019226,60.768848 
	C192.202896,60.656746 191.170410,61.817982 190.104248,61.849773 
	C184.115021,62.028336 178.102005,62.160152 172.136261,61.745079 
	C170.935150,61.661510 169.142059,59.249844 168.944733,57.738819 
	C168.474319,54.136517 168.878082,50.428570 168.771088,46.767902 
	C168.663971,43.103733 170.323639,41.769127 173.936035,41.879238 
	C180.092178,42.066895 186.258316,41.926422 193.388474,41.923397 
M198.058807,83.329811 
	C197.479630,81.461243 197.049088,79.519539 196.195984,77.785759 
	C196.025162,77.438591 193.377945,77.746193 193.340118,77.984665 
	C192.966721,80.338730 192.903061,82.741936 192.751633,85.131203 
	C194.498978,84.811043 196.246338,84.490875 198.058807,83.329811 
M190.045364,84.241516 
	C189.192947,83.966789 188.340530,83.692062 186.634705,83.142281 
	C188.111328,82.587860 189.070297,82.523544 189.441513,82.023170 
	C190.094772,81.142685 190.388840,79.995712 190.833313,78.960335 
	C189.612961,78.451355 188.392593,77.942375 187.172241,77.433395 
	C186.556488,79.547798 185.162506,81.803566 185.514664,83.742126 
	C185.994919,86.385826 188.142456,87.169884 190.045364,84.241516 
M159.621826,77.594238 
	C159.621826,77.594238 159.442337,77.487801 159.442337,77.487801 
	C159.442337,77.487801 159.471939,77.737350 159.621826,77.594238 
z"/>
<path fill="#F6FEFD" opacity="1.000000" stroke="none" 
	d="
M20.023628,2.040876 
	C20.018671,1.867420 20.013716,1.693964 20.004379,1.260254 
	C23.361668,1.000000 26.723335,1.000000 30.542500,1.000000 
	C30.748718,1.450729 30.497438,1.901459 29.687271,2.654839 
	C26.752243,2.943215 24.376102,2.928941 21.824131,2.689812 
	C21.106741,2.323597 20.565186,2.182236 20.023628,2.040876 
z"/>
<path fill="#424B4E" opacity="1.000000" stroke="none" 
	d="
M108.714401,50.061699 
	C107.048386,54.732288 105.343880,59.373699 99.797958,61.247108 
	C102.565811,64.199280 105.114174,66.917351 108.026070,70.023155 
	C103.333427,71.860352 98.342987,71.681244 96.114532,68.661392 
	C89.365158,59.515083 80.326691,62.480450 71.340164,62.268070 
	C71.147881,64.789345 70.976257,67.039803 70.779419,69.620926 
	C68.142227,69.620926 65.560547,69.620926 62.593449,69.620926 
	C62.593449,57.984192 62.593449,46.292274 62.593449,34.312115 
	C74.260521,34.312115 85.853127,33.784431 97.365036,34.519886 
	C103.760780,34.928490 107.386200,39.880917 108.496552,46.922733 
	C108.594063,48.384804 108.654228,49.223251 108.714401,50.061699 
M78.577225,42.002575 
	C76.157425,42.002575 73.737625,42.002575 71.432587,42.002575 
	C71.432587,46.418720 71.432587,50.114517 71.432587,54.025616 
	C79.005676,54.025616 86.134453,54.077438 93.261963,54.004715 
	C97.076508,53.965797 99.798630,52.273598 99.811279,48.134033 
	C99.824600,43.777939 97.068489,42.029766 92.996513,42.007877 
	C88.515884,41.983791 84.035019,42.001579 78.577225,42.002575 
z"/>
<path fill="#434C4F" opacity="1.000000" stroke="none" 
	d="
M111.067589,47.006638 
	C111.067589,42.884529 111.067589,38.762424 111.067589,34.364983 
	C123.416344,34.364983 135.185852,33.792542 146.863190,34.582401 
	C153.728622,35.046776 158.309555,42.397903 157.675446,49.184017 
	C156.999008,56.423210 151.523911,61.845760 144.169281,62.053410 
	C136.389084,62.273071 128.597885,62.102718 120.462669,62.102718 
	C120.240807,64.779793 120.054100,67.032730 119.839272,69.624985 
	C117.170616,69.624985 114.587761,69.624985 111.258522,69.624985 
	C111.258522,63.433044 111.258522,57.174427 111.275665,50.089111 
	C111.217743,48.510487 111.142662,47.758560 111.067589,47.006638 
M148.692413,50.028461 
	C149.376312,46.277832 148.416412,42.643280 144.432800,42.359726 
	C136.420853,41.789440 128.339798,42.190071 120.426735,42.190071 
	C120.426735,46.450237 120.426735,50.030468 120.426735,54.020855 
	C128.233398,54.020855 135.694336,54.227154 143.128571,53.872841 
	C144.940918,53.786465 146.665573,51.859589 148.692413,50.028461 
z"/>
<path fill="#434B4E" opacity="1.000000" stroke="none" 
	d="
M192.904358,41.923599 
	C186.258316,41.926422 180.092178,42.066895 173.936035,41.879238 
	C170.323639,41.769127 168.663971,43.103733 168.771088,46.767902 
	C168.878082,50.428570 168.474319,54.136517 168.944733,57.738819 
	C169.142059,59.249844 170.935150,61.661510 172.136261,61.745079 
	C178.102005,62.160152 184.115021,62.028336 190.104248,61.849773 
	C191.170410,61.817982 192.202896,60.656746 192.019226,60.768848 
	C191.042999,56.884415 190.302597,53.938320 189.427307,50.455563 
	C194.057892,50.455563 197.501587,50.455563 201.551422,50.455563 
	C201.551422,54.385128 202.000565,58.357071 201.436340,62.179428 
	C200.749939,66.829453 196.708984,69.813393 191.718842,69.909134 
	C184.560318,70.046486 177.395111,70.059738 170.236862,69.918762 
	C164.495911,69.805710 160.873535,66.382118 160.590332,60.596302 
	C160.313858,54.947884 160.324615,49.268154 160.558914,43.616665 
	C160.812866,37.490616 164.318588,34.138519 170.437912,34.012554 
	C177.429489,33.868633 184.426376,33.958057 191.420807,33.985493 
	C196.299545,34.004631 199.528732,36.316158 201.438766,41.923397 
	C198.461044,41.923397 195.924759,41.923397 192.904358,41.923599 
z"/>
<path fill="#1F94CD" opacity="1.000000" stroke="none" 
	d="
M9.055283,34.065769 
	C9.055283,34.065769 9.519802,33.965427 10.179913,33.965263 
	C13.896781,33.996597 16.953539,34.028095 20.009535,34.025604 
	C20.008772,33.991611 19.940872,33.987858 19.988308,34.441391 
	C20.007689,37.935776 19.979633,40.976631 19.976570,44.009365 
	C20.001560,44.001247 20.016539,43.950871 19.558355,43.974007 
	C15.752635,43.996670 12.405097,43.996204 9.057560,43.995735 
	C8.918439,43.562653 8.779318,43.129570 8.686867,41.973381 
	C8.840786,38.855438 8.948034,36.460602 9.055283,34.065769 
z"/>
<path fill="#82DBF1" opacity="1.000000" stroke="none" 
	d="
M46.985092,44.285271 
	C46.268700,44.225140 45.552303,44.165012 44.161186,44.059662 
	C43.275841,43.958698 43.065220,43.902946 42.911934,43.415695 
	C43.031590,40.370815 43.093910,37.757431 43.371353,35.031494 
	C43.829720,34.688988 43.987030,34.410488 44.492043,34.061859 
	C46.962559,34.022610 48.999432,34.004944 51.215115,34.219910 
	C52.147293,34.614727 52.900665,34.776917 53.802090,34.941818 
	C53.950142,34.944534 54.246292,34.945805 54.246292,34.945805 
	C54.170918,36.678402 54.095547,38.410999 53.982323,40.922062 
	C53.900337,42.389023 53.856205,43.077522 53.507423,43.823841 
	C52.791538,43.923038 52.380299,43.964413 51.733032,43.981133 
	C51.497002,43.956478 51.024620,44.002651 50.618813,44.001438 
	C49.137035,44.095242 48.061066,44.190258 46.985092,44.285271 
z"/>
<path fill="#27BAD9" opacity="1.000000" stroke="none" 
	d="
M53.830070,14.964624 
	C53.830070,14.964624 54.001518,14.555475 54.504612,14.311136 
	C58.318840,14.064099 61.629974,14.061400 64.998657,14.502354 
	C64.975006,17.906818 64.893814,20.867632 64.369682,23.840824 
	C60.966900,23.755783 58.007057,23.658367 55.043392,23.249632 
	C54.766823,21.973764 54.494076,21.009214 54.150536,19.625095 
	C53.996517,17.791891 53.913296,16.378258 53.830070,14.964624 
z"/>
<path fill="#F6FEFD" opacity="1.000000" stroke="none" 
	d="
M21.026438,22.054861 
	C20.716898,19.950945 20.407356,17.847029 20.474438,15.356599 
	C22.908661,14.682286 24.966257,14.394487 27.343061,14.093830 
	C28.087944,14.092331 28.513620,14.103687 29.011436,14.429678 
	C29.754782,15.177868 30.425985,15.611425 31.146078,16.371630 
	C31.151136,17.135429 31.107304,17.572584 30.772543,18.233944 
	C29.001369,24.051115 24.383196,21.394955 21.026438,22.054861 
z"/>
<path fill="#81D0E0" opacity="1.000000" stroke="none" 
	d="
M28.939297,14.115045 
	C28.513620,14.103687 28.087944,14.092331 26.915192,14.038593 
	C24.191214,13.924310 22.214314,13.852407 20.237413,13.780504 
	C20.237413,13.780504 20.110806,13.394132 20.071312,12.759302 
	C19.998589,9.740212 19.965357,7.355952 19.932125,4.971691 
	C19.932125,4.971691 20.004185,4.501545 20.270748,4.141658 
	C21.024862,3.492736 21.512411,3.203701 21.999962,2.914667 
	C24.376102,2.928941 26.752243,2.943215 29.569485,2.886858 
	C30.010586,2.816226 30.455736,2.973011 30.732883,3.465444 
	C31.009838,7.308017 31.009642,10.658159 30.663456,13.997593 
	C29.858074,14.029605 29.398685,14.072325 28.939297,14.115045 
M28.758270,5.523574 
	C26.518885,6.013675 24.200998,6.317463 22.123852,7.192628 
	C21.808458,7.325513 22.208086,11.158175 22.978903,11.454657 
	C24.647617,12.096502 27.246904,12.219926 28.554203,11.283298 
	C29.553087,10.567639 29.152208,7.898259 28.758270,5.523574 
z"/>
<path fill="#3EB1CD" opacity="1.000000" stroke="none" 
	d="
M20.913469,54.252594 
	C20.913469,54.252594 20.567152,54.032806 20.372940,53.508240 
	C20.124666,49.972736 20.070602,46.961803 20.016539,43.950871 
	C20.016539,43.950871 20.001560,44.001247 20.438313,44.011696 
	C24.259157,44.006447 27.643251,43.990753 31.071209,44.430435 
	C31.116859,47.945999 31.118641,51.006195 31.080318,54.052185 
	C31.040215,54.037975 31.065908,54.119099 30.605019,54.105892 
	C27.067244,54.145988 23.990356,54.199291 20.913469,54.252594 
M23.711617,52.908302 
	C24.536268,52.936455 25.360987,52.962852 26.185562,52.993069 
	C28.900208,53.092545 30.583157,51.667957 29.801968,49.130699 
	C29.392239,47.799923 27.320284,46.282131 25.850994,46.109692 
	C21.732244,45.626293 21.110594,47.216011 23.711617,52.908302 
z"/>
<path fill="#4BBEDB" opacity="1.000000" stroke="none" 
	d="
M19.858732,24.938328 
	C20.073502,24.662539 20.288271,24.386749 21.162296,24.010273 
	C24.856218,23.917360 27.890886,23.925137 30.965286,24.205021 
	C31.006599,24.660202 31.008179,24.843277 30.597853,25.030798 
	C28.413036,25.339804 26.515841,25.354963 24.908575,26.045227 
	C23.732191,26.550440 22.936790,27.942764 21.971577,28.939686 
	C23.061861,29.981375 23.984303,31.444046 25.283400,31.961987 
	C27.048643,32.665771 29.101898,32.647160 31.034576,33.205627 
	C31.016733,33.649853 30.995947,33.826824 30.517761,34.013474 
	C26.687199,34.011387 23.314035,33.999622 19.940872,33.987858 
	C19.940872,33.987858 20.008772,33.991611 20.014736,33.569603 
	C19.966709,30.411169 19.912720,27.674749 19.858732,24.938328 
z"/>
<path fill="#8F9395" opacity="1.000000" stroke="none" 
	d="
M198.026245,83.750259 
	C196.246338,84.490875 194.498978,84.811043 192.751633,85.131210 
	C192.903061,82.741936 192.966721,80.338730 193.340118,77.984665 
	C193.377945,77.746193 196.025162,77.438591 196.195984,77.785759 
	C197.049088,79.519539 197.479630,81.461243 198.026245,83.750259 
z"/>
<path fill="#F6FEFD" opacity="1.000000" stroke="none" 
	d="
M37.995373,45.966225 
	C36.383152,49.496765 35.368839,53.559746 32.902328,56.329529 
	C31.698759,57.681080 27.788187,56.622032 25.458729,56.309181 
	C27.564993,55.349186 29.315451,54.734142 31.065908,54.119099 
	C31.065908,54.119099 31.040215,54.037975 31.453337,53.946964 
	C32.473053,51.414543 33.079647,48.973129 33.766655,46.208076 
	C35.097675,46.131954 36.546524,46.049088 37.995373,45.966225 
z"/>
<path fill="#C3F8FD" opacity="1.000000" stroke="none" 
	d="
M53.503056,15.030718 
	C53.913296,16.378258 53.996517,17.791891 54.085312,20.020412 
	C54.049755,21.903656 54.008629,22.972010 53.983246,24.022152 
	C53.998993,24.003939 54.031170,23.968122 53.572777,23.953724 
	C49.790459,23.913954 46.466534,23.888584 43.014442,23.633152 
	C42.769863,23.271650 42.653461,23.140213 42.622765,22.571053 
	C42.802811,19.767794 42.897148,17.402258 43.281380,15.293227 
	C45.146420,17.469400 41.800167,22.006907 47.001221,21.997847 
	C47.751518,22.009241 48.501820,22.020634 49.989861,21.964571 
	C51.158916,20.598646 51.590229,19.300177 52.021545,18.001709 
	C52.406376,17.033409 52.791206,16.065111 53.503056,15.030718 
z"/>
<path fill="#D5F9FD" opacity="1.000000" stroke="none" 
	d="
M31.009447,14.008301 
	C31.009642,10.658159 31.009838,7.308017 30.965281,3.506395 
	C31.611105,3.972865 32.988136,4.979888 32.882435,5.794514 
	C32.114849,11.710004 35.461029,12.523104 40.091724,12.016794 
	C40.748158,11.945022 41.419323,12.008041 42.533607,12.364401 
	C42.960850,13.194241 42.938156,13.668352 42.525505,14.075282 
	C41.087303,14.019013 40.039059,14.029925 38.556488,13.994759 
	C36.091625,14.019790 34.061092,14.090899 31.769680,14.090245 
	C31.329170,14.000003 31.149540,13.981523 30.971676,13.981609 
	C30.973442,14.000175 31.009447,14.008301 31.009447,14.008301 
z"/>
<path fill="#BFF5FC" opacity="1.000000" stroke="none" 
	d="
M38.400871,45.961372 
	C36.546524,46.049088 35.097675,46.131954 33.766655,46.208076 
	C33.079647,48.973129 32.473053,51.414543 31.493441,53.961174 
	C31.118641,51.006195 31.116859,47.945999 31.055153,44.448662 
	C30.995232,44.011517 30.954201,44.037033 31.416389,43.998161 
	C35.537251,43.921928 39.195923,43.884560 42.854595,43.847191 
	C43.065220,43.902946 43.275841,43.958698 43.802307,44.101959 
	C42.347561,44.778492 40.576965,45.367508 38.400871,45.961372 
z"/>
<path fill="#929596" opacity="1.000000" stroke="none" 
	d="
M190.217819,84.535446 
	C188.142456,87.169884 185.994919,86.385826 185.514664,83.742126 
	C185.162506,81.803566 186.556488,79.547798 187.172241,77.433395 
	C188.392593,77.942375 189.612961,78.451355 190.833313,78.960327 
	C190.388840,79.995712 190.094772,81.142685 189.441513,82.023170 
	C189.070297,82.523544 188.111328,82.587860 186.634705,83.142281 
	C188.340530,83.692062 189.192947,83.966789 190.217819,84.535446 
z"/>
<path fill="#C3F8FD" opacity="1.000000" stroke="none" 
	d="
M55.047218,23.560947 
	C58.007057,23.658367 60.966900,23.755783 64.463036,23.927324 
	C64.999336,24.001448 65.184196,24.176428 65.120941,24.465393 
	C65.024826,25.147440 64.991959,25.540525 64.959091,25.933613 
	C64.218971,25.944397 63.478840,25.955181 61.957626,25.969736 
	C59.441696,26.647684 57.706848,27.321863 55.972000,27.996044 
	C55.562912,30.151718 55.153824,32.307388 54.495514,34.704433 
	C54.246292,34.945805 53.950142,34.944534 53.923965,34.500298 
	C53.942249,30.693413 53.986710,27.330767 54.031170,23.968122 
	C54.031170,23.968122 53.998993,24.003939 54.264236,23.927191 
	C54.702065,23.753942 54.874641,23.657444 55.047218,23.560947 
z"/>
<path fill="#C4F6FC" opacity="1.000000" stroke="none" 
	d="
M19.558355,43.974007 
	C20.070602,46.961803 20.124666,49.972736 20.184078,53.428291 
	C19.985582,53.908936 19.781736,53.944954 19.230774,53.596470 
	C18.424654,50.974396 17.965652,48.736832 17.450535,46.225700 
	C15.918323,46.138805 14.460591,46.056137 13.002860,45.973465 
	C11.770461,45.525124 10.538063,45.076786 9.181612,44.312088 
	C12.405097,43.996204 15.752635,43.996670 19.558355,43.974007 
z"/>
<path fill="#C4F6FC" opacity="1.000000" stroke="none" 
	d="
M19.528730,25.007399 
	C19.912720,27.674749 19.966709,30.411169 20.015499,33.603592 
	C16.953539,34.028095 13.896781,33.996597 10.391975,33.858070 
	C10.144008,33.272579 10.344088,32.794125 11.209891,32.179115 
	C14.617912,31.752338 18.672415,33.455105 18.014515,28.000639 
	C18.409254,27.025915 18.803991,26.051191 19.528730,25.007399 
z"/>
<path fill="#E2E6E7" opacity="1.000000" stroke="none" 
	d="
M153.064636,83.761787 
	C152.730942,84.284782 152.397247,84.807777 151.653839,85.972900 
	C151.653839,81.532921 151.653839,77.877029 151.653839,74.221130 
	C152.158890,74.159386 152.663940,74.097641 153.168991,74.035889 
	C153.472000,75.259850 153.774994,76.483810 154.059418,78.438431 
	C154.364365,79.619331 154.687897,80.069565 155.014297,80.747147 
	C155.017685,81.277649 155.021454,81.580772 154.698792,81.870392 
	C153.934265,82.491882 153.499451,83.126831 153.064636,83.761787 
z"/>
<path fill="#979B9D" opacity="1.000000" stroke="none" 
	d="
M138.951096,77.745857 
	C140.291367,78.256554 141.631638,78.767258 143.003387,80.003723 
	C143.083344,81.834274 143.131836,82.939056 143.104187,84.353561 
	C142.958862,85.082710 142.889679,85.502136 142.820496,85.921562 
	C141.825775,85.591354 140.831070,85.261147 139.445557,84.521667 
	C138.974884,82.716354 138.895004,81.320320 138.852417,79.929337 
	C138.889725,79.934387 138.944077,79.986511 139.208389,80.159401 
	C139.817200,80.169754 140.161682,80.007217 140.506180,79.844681 
	C140.049423,79.623383 139.592651,79.402084 139.088974,78.822144 
	C139.011719,78.224281 138.981400,77.985069 138.951096,77.745857 
z"/>
<path fill="#F6FEFD" opacity="1.000000" stroke="none" 
	d="
M13.037619,46.327538 
	C14.460591,46.056137 15.918323,46.138805 17.450535,46.225700 
	C17.965652,48.736832 18.424654,50.974396 18.920708,53.613014 
	C16.995966,51.569920 15.034171,49.125767 13.037619,46.327538 
z"/>
<path fill="#F6FEFD" opacity="1.000000" stroke="none" 
	d="
M42.915466,14.142464 
	C42.938156,13.668352 42.960850,13.194241 42.983047,12.364123 
	C47.789207,13.539546 46.194000,17.880138 47.001259,21.582176 
	C41.800167,22.006907 45.146420,17.469400 43.177849,15.322449 
	C42.784428,15.095168 42.575275,15.146451 42.706978,14.911263 
	C42.864273,14.498203 42.889870,14.320333 42.915466,14.142464 
z"/>
<path fill="#F6FEFD" opacity="1.000000" stroke="none" 
	d="
M51.969063,44.005791 
	C52.380299,43.964413 52.791538,43.923038 53.780716,43.893784 
	C54.544399,43.926319 54.730137,43.946735 54.915874,43.967148 
	C54.929531,44.753334 55.073471,46.201302 54.937618,46.228046 
	C52.185383,46.769871 49.130287,48.811367 47.009697,44.660393 
	C48.061066,44.190258 49.137035,44.095242 50.696655,44.167488 
	C51.443226,44.225098 51.706142,44.115444 51.969063,44.005791 
z"/>
<path fill="#C4F6FC" opacity="1.000000" stroke="none" 
	d="
M30.925552,23.932911 
	C27.890886,23.925137 24.856218,23.917360 21.365232,23.842506 
	C20.935095,23.392998 20.961277,23.010565 21.006948,22.341497 
	C24.383196,21.394955 29.001369,24.051115 30.894650,18.648182 
	C31.267071,20.550669 31.226456,22.263123 31.126854,23.927797 
	C31.067865,23.880016 30.925552,23.932911 30.925552,23.932911 
z"/>
<path fill="#C3F8FD" opacity="1.000000" stroke="none" 
	d="
M64.941109,14.058702 
	C61.629974,14.061400 58.318840,14.064099 54.561436,14.096728 
	C54.070000,13.936172 54.024834,13.745683 54.186539,13.173981 
	C54.692001,12.619507 54.901463,12.371101 55.021790,12.047550 
	C58.039242,12.041516 61.056698,12.035481 64.540451,12.324742 
	C65.083916,12.999650 65.161087,13.379264 65.164017,13.833878 
	C65.089775,13.908878 64.941109,14.058702 64.941109,14.058702 
z"/>
<path fill="#BFF5FC" opacity="1.000000" stroke="none" 
	d="
M30.605019,54.105892 
	C29.315451,54.734142 27.564993,55.349186 25.408756,55.969559 
	C23.706354,55.621506 22.409733,55.268135 21.013290,54.583679 
	C23.990356,54.199291 27.067244,54.145988 30.605019,54.105892 
z"/>
<path fill="#E4E8EA" opacity="1.000000" stroke="none" 
	d="
M118.001213,84.999603 
	C117.143913,85.303261 116.286613,85.606926 115.170135,85.502670 
	C114.308380,84.125648 113.705795,83.156540 113.103210,82.187424 
	C113.771034,81.460945 114.438850,80.734459 115.649475,80.309746 
	C116.911606,80.756630 117.630936,80.901756 118.350266,81.046875 
	C118.350266,81.046875 118.384140,80.964119 118.509850,81.127960 
	C118.635559,81.291801 118.852417,81.577942 118.511375,81.781738 
	C118.113960,82.990219 118.057587,83.994911 118.001213,84.999603 
z"/>
<path fill="#F6FEFD" opacity="1.000000" stroke="none" 
	d="
M17.649990,28.038040 
	C18.672415,33.455105 14.617912,31.752338 11.439690,32.039764 
	C13.097666,30.716457 15.191566,29.395948 17.649990,28.038040 
z"/>
<path fill="#C3F8FD" opacity="1.000000" stroke="none" 
	d="
M64.905975,23.914948 
	C64.893814,20.867632 64.975006,17.906818 64.998657,14.502353 
	C64.941109,14.058702 65.089775,13.908878 65.445648,13.907112 
	C66.189850,13.943204 66.578178,13.981062 66.966499,14.018920 
	C66.982887,15.725949 66.999275,17.432980 67.008507,19.936172 
	C66.395638,21.880365 65.789917,23.028395 65.184189,24.176426 
	C65.184196,24.176428 64.999336,24.001448 64.905975,23.914948 
z"/>
<path fill="#F6FEFD" opacity="1.000000" stroke="none" 
	d="
M65.120941,24.465391 
	C65.789917,23.028395 66.395638,21.880365 67.021118,20.362659 
	C67.957878,20.428391 68.874870,20.863800 69.791862,21.299212 
	C68.316940,23.015894 66.842010,24.732576 65.163086,26.191437 
	C64.991959,25.540525 65.024826,25.147440 65.120941,24.465391 
z"/>
<path fill="#E7E9EA" opacity="1.000000" stroke="none" 
	d="
M155.028488,81.883858 
	C155.021454,81.580772 155.017685,81.277649 155.242157,80.537613 
	C155.952911,79.730980 156.438675,79.361214 156.924438,78.991440 
	C157.110489,78.996117 157.296555,79.000801 157.766693,79.394913 
	C158.356842,81.127167 158.662918,82.469994 158.943512,83.970047 
	C158.918030,84.127274 159.006149,84.433388 159.006149,84.433388 
	C158.503265,84.933418 158.000397,85.433449 157.234604,85.627731 
	C156.631546,84.878532 156.291412,84.435074 155.951279,83.991623 
	C155.951279,83.991623 156.007996,83.993927 155.995850,83.716324 
	C155.665298,82.920433 155.346893,82.402145 155.028488,81.883858 
z"/>
<path fill="#AAAEAF" opacity="1.000000" stroke="none" 
	d="
M159.479431,79.823921 
	C160.595169,79.129799 161.710892,78.435677 162.826614,77.741562 
	C163.183929,78.030945 163.541245,78.320328 163.898544,78.609711 
	C162.442673,80.381622 160.986801,82.153534 159.268539,84.179420 
	C159.006149,84.433388 158.918030,84.127274 158.945770,83.565140 
	C159.142166,81.943314 159.310791,80.883614 159.479431,79.823921 
z"/>
<path fill="#D5F9FD" opacity="1.000000" stroke="none" 
	d="
M19.558241,5.063628 
	C19.965357,7.355952 19.998589,9.740212 19.996948,12.570098 
	C16.437155,10.718791 17.638811,7.954192 19.558241,5.063628 
z"/>
<path fill="#C4F6FC" opacity="1.000000" stroke="none" 
	d="
M8.672852,34.103477 
	C8.948034,36.460602 8.840786,38.855438 8.545016,41.663231 
	C8.334470,39.431187 8.312445,36.786182 8.672852,34.103477 
z"/>
<path fill="#8B8F92" opacity="1.000000" stroke="none" 
	d="
M146.095749,80.603783 
	C147.734879,82.681221 147.920746,84.498703 144.799622,85.460220 
	C144.281342,84.755173 144.131363,84.380402 144.014282,83.656204 
	C144.730057,82.405769 145.412903,81.504776 146.095749,80.603783 
z"/>
<path fill="#F4F7F7" opacity="1.000000" stroke="none" 
	d="
M137.227371,85.883308 
	C133.123123,84.281616 134.988129,81.670349 136.558044,79.317055 
	C137.021194,79.446777 137.172607,79.918968 137.105270,80.342957 
	C137.101074,82.472404 137.164230,84.177856 137.227371,85.883308 
z"/>
<path fill="#9FA3A4" opacity="1.000000" stroke="none" 
	d="
M137.618927,85.833786 
	C137.164230,84.177856 137.101074,82.472404 137.379150,80.356689 
	C138.085297,79.939041 138.450195,79.931664 138.815109,79.924286 
	C138.895004,81.320320 138.974884,82.716354 139.065216,84.400650 
	C138.720596,85.054024 138.365540,85.419144 137.618927,85.833786 
z"/>
<path fill="#F6FEFD" opacity="1.000000" stroke="none" 
	d="
M56.307976,27.970549 
	C57.706848,27.321863 59.441696,26.647684 61.587593,25.977776 
	C60.213745,26.636379 58.428844,27.290718 56.307976,27.970549 
z"/>
<path fill="#DCE0E2" opacity="1.000000" stroke="none" 
	d="
M146.050659,80.332169 
	C145.412903,81.504776 144.730057,82.405769 143.813904,83.662659 
	C143.580612,84.018555 143.180328,84.043839 143.180328,84.043839 
	C143.131836,82.939056 143.083344,81.834274 143.086639,80.316223 
	C144.094147,79.955490 145.049850,80.008026 146.050659,80.332169 
z"/>
<path fill="#A3A5A7" opacity="1.000000" stroke="none" 
	d="
M123.967941,77.760788 
	C127.555168,76.947418 128.898285,77.981422 126.594711,81.340027 
	C126.071770,81.093132 125.763382,80.720963 125.793686,80.431236 
	C125.253151,79.799988 124.682304,79.458466 124.073547,78.778122 
	C124.013054,78.213127 123.990494,77.986961 123.967941,77.760788 
z"/>
<path fill="#ECF1F2" opacity="1.000000" stroke="none" 
	d="
M110.685623,47.004944 
	C111.142662,47.758560 111.217743,48.510487 111.182610,49.627907 
	C110.482742,50.007133 109.893074,50.020859 109.008911,50.048141 
	C108.654228,49.223251 108.594063,48.384804 108.655182,47.251102 
	C109.285530,46.971649 109.794601,46.987450 110.685623,47.004944 
z"/>
<path fill="#F6FEFD" opacity="1.000000" stroke="none" 
	d="
M67.207710,13.841255 
	C66.578178,13.981062 66.189850,13.943204 65.519897,13.832111 
	C65.161087,13.379264 65.083916,12.999650 64.992561,12.328619 
	C65.801895,12.579330 66.625404,13.121461 67.207710,13.841255 
z"/>
<path fill="#989DA0" opacity="1.000000" stroke="none" 
	d="
M118.852417,81.577942 
	C118.852417,81.577942 118.635559,81.291801 118.554413,81.131485 
	C119.064095,80.090263 119.654907,79.209358 120.245728,78.328445 
	C120.552475,78.754433 120.859222,79.180412 121.134979,79.959686 
	C121.103981,80.312988 121.125298,80.299492 121.125298,80.299492 
	C120.957451,80.627800 120.789597,80.956100 119.925293,81.632660 
	C119.103363,81.846588 118.977890,81.712265 118.852417,81.577942 
z"/>
<path fill="#737779" opacity="1.000000" stroke="none" 
	d="
M121.540710,80.402481 
	C121.125298,80.299492 121.103981,80.312988 121.101212,80.335274 
	C121.828148,79.638329 122.557854,78.919098 123.627747,77.980331 
	C123.990494,77.986961 124.013054,78.213127 124.026276,78.991562 
	C124.016922,79.543823 124.019493,79.981247 123.989716,80.300987 
	C123.956558,81.048370 123.953178,81.476006 123.949799,81.903648 
	C123.285240,81.437592 122.620682,80.971527 121.540710,80.402481 
z"/>
<path fill="#F6FEFD" opacity="1.000000" stroke="none" 
	d="
M51.660706,18.065655 
	C51.590229,19.300177 51.158916,20.598646 50.365005,21.956902 
	C50.434895,20.720991 50.867382,19.425295 51.660706,18.065655 
z"/>
<path fill="#626568" opacity="1.000000" stroke="none" 
	d="
M113.113586,82.489655 
	C113.705795,83.156540 114.308380,84.125648 114.828354,85.458862 
	C114.205154,84.812614 113.664558,83.802246 113.113586,82.489655 
z"/>
<path fill="#C4F6FC" opacity="1.000000" stroke="none" 
	d="
M20.164436,14.070133 
	C22.214314,13.852407 24.191214,13.924310 26.595985,14.051450 
	C24.966257,14.394487 22.908661,14.682286 20.437195,14.961658 
	C20.046038,14.755407 20.068748,14.557585 20.164436,14.070133 
z"/>
<path fill="#4E5356" opacity="1.000000" stroke="none" 
	d="
M118.511375,81.781738 
	C118.977890,81.712265 119.103363,81.846588 119.504158,81.991211 
	C119.406578,82.960007 119.033676,83.918503 118.330994,84.938301 
	C118.057587,83.994911 118.113960,82.990219 118.511375,81.781738 
z"/>
<path fill="#515658" opacity="1.000000" stroke="none" 
	d="
M118.101547,80.804031 
	C117.630936,80.901756 116.911606,80.756630 116.001045,80.293945 
	C115.985367,79.395058 116.160927,78.813744 116.492104,77.717110 
	C117.095070,78.977394 117.473946,79.769295 118.101547,80.804031 
z"/>
<path fill="#989C9D" opacity="1.000000" stroke="none" 
	d="
M156.833984,78.641373 
	C156.438675,79.361214 155.952911,79.730980 155.239288,80.310272 
	C154.687897,80.069565 154.364365,79.619331 154.099915,78.873856 
	C155.020508,78.482834 155.882034,78.387062 156.833984,78.641373 
z"/>
<path fill="#848788" opacity="1.000000" stroke="none" 
	d="
M154.698792,81.870392 
	C155.346893,82.402145 155.665298,82.920433 155.989960,83.744087 
	C155.273727,83.963837 154.551270,83.878220 153.446716,83.777199 
	C153.499451,83.126831 153.934265,82.491882 154.698792,81.870392 
z"/>
<path fill="#5B5E60" opacity="1.000000" stroke="none" 
	d="
M159.330429,79.552948 
	C159.310791,80.883614 159.142166,81.943314 158.971252,83.407913 
	C158.662918,82.469994 158.356842,81.127167 158.045807,79.401375 
	C158.421036,79.106262 158.801224,79.194115 159.330429,79.552948 
z"/>
<path fill="#F6FEFD" opacity="1.000000" stroke="none" 
	d="
M54.871765,11.822114 
	C54.901463,12.371101 54.692001,12.619507 54.160973,12.881440 
	C53.795818,12.484837 53.663090,11.999558 53.530361,11.514280 
	C53.927486,11.541747 54.324612,11.569213 54.871765,11.822114 
z"/>
<path fill="#737779" opacity="1.000000" stroke="none" 
	d="
M138.852417,79.929337 
	C138.450195,79.931664 138.085297,79.939041 137.446503,79.932693 
	C137.172607,79.918968 137.021194,79.446777 136.924072,79.218643 
	C137.308517,78.594437 137.790070,78.198364 138.611359,77.774071 
	C138.981400,77.985069 139.011719,78.224281 139.040497,79.023415 
	C139.038940,79.583328 138.944077,79.986511 138.944077,79.986511 
	C138.944077,79.986511 138.889725,79.934387 138.852417,79.929337 
z"/>
<path fill="#C3F8FD" opacity="1.000000" stroke="none" 
	d="
M54.930344,43.637711 
	C54.730137,43.946735 54.544399,43.926319 54.085365,43.835960 
	C53.856205,43.077522 53.900337,42.389023 53.990929,41.356400 
	C54.339867,41.777603 54.642342,42.542934 54.930344,43.637711 
z"/>
<path fill="#A3A5A7" opacity="1.000000" stroke="none" 
	d="
M124.264069,81.948761 
	C123.953178,81.476006 123.956558,81.048370 124.195045,80.427292 
	C124.874565,80.396217 125.318970,80.558586 125.763382,80.720963 
	C125.763382,80.720963 126.071770,81.093132 126.203094,81.298302 
	C125.749062,81.666939 125.163704,81.830406 124.264069,81.948761 
z"/>
<path fill="#D5F9FD" opacity="1.000000" stroke="none" 
	d="
M21.824131,2.689812 
	C21.512411,3.203701 21.024862,3.492736 20.282242,3.904118 
	C20.019728,3.584862 20.012281,3.143259 20.014233,2.371266 
	C20.565186,2.182236 21.106741,2.323597 21.824131,2.689812 
z"/>
<path fill="#F0F2F3" opacity="1.000000" stroke="none" 
	d="
M143.104187,84.353561 
	C143.180328,84.043839 143.580612,84.018555 143.781006,84.012093 
	C144.131363,84.380402 144.281342,84.755173 144.511108,85.421432 
	C144.298111,85.765511 144.005295,85.818092 143.266479,85.896118 
	C142.889679,85.502136 142.958862,85.082710 143.104187,84.353561 
z"/>
<path fill="#848788" opacity="1.000000" stroke="none" 
	d="
M155.773407,84.279724 
	C156.291412,84.435074 156.631546,84.878532 156.939621,85.633194 
	C156.470215,85.485535 156.032867,85.026680 155.773407,84.279724 
z"/>
<path fill="#AAAEAF" opacity="1.000000" stroke="none" 
	d="
M159.546875,77.665794 
	C159.471939,77.737350 159.442337,77.487801 159.442337,77.487801 
	C159.442337,77.487801 159.621826,77.594238 159.546875,77.665794 
z"/>
<path fill="#F6F8F8" opacity="1.000000" stroke="none" 
	d="
M79.065742,42.001850 
	C84.035019,42.001579 88.515884,41.983791 92.996513,42.007877 
	C97.068489,42.029766 99.824600,43.777939 99.811279,48.134033 
	C99.798630,52.273598 97.076508,53.965797 93.261963,54.004715 
	C86.134453,54.077438 79.005676,54.025616 71.432587,54.025616 
	C71.432587,50.114517 71.432587,46.418720 71.432587,42.002575 
	C73.737625,42.002575 76.157425,42.002575 79.065742,42.001850 
z"/>
<path fill="#F5F7F7" opacity="1.000000" stroke="none" 
	d="
M148.561478,50.403709 
	C146.665573,51.859589 144.940918,53.786465 143.128571,53.872841 
	C135.694336,54.227154 128.233398,54.020855 120.426735,54.020855 
	C120.426735,50.030468 120.426735,46.450237 120.426735,42.190071 
	C128.339798,42.190071 136.420853,41.789440 144.432800,42.359726 
	C148.416412,42.643280 149.376312,46.277832 148.561478,50.403709 
z"/>
<path fill="#C1F9FF" opacity="1.000000" stroke="none" 
	d="
M19.988308,34.441391 
	C23.314035,33.999622 26.687199,34.011387 30.650438,34.276520 
	C31.361097,34.684727 31.481678,34.839565 31.491840,35.434196 
	C31.239016,38.595009 31.096607,41.316021 30.954201,44.037033 
	C30.954201,44.037033 30.995232,44.011517 31.011288,43.993290 
	C27.643251,43.990753 24.259157,44.006447 20.413322,44.019814 
	C19.979633,40.976631 20.007689,37.935776 19.988308,34.441391 
M27.319677,35.976086 
	C25.561172,36.643017 23.688906,37.134155 22.145266,38.133106 
	C21.855104,38.320881 22.711115,41.529507 23.323084,41.631287 
	C25.294394,41.959133 27.398832,41.486481 29.451942,41.322468 
	C29.029579,39.559898 28.607216,37.797333 27.319677,35.976086 
z"/>
<path fill="#05A3E6" opacity="1.000000" stroke="none" 
	d="
M31.602257,34.994400 
	C31.481678,34.839565 31.361097,34.684727 31.107838,34.266838 
	C30.995947,33.826824 31.016733,33.649853 31.025337,32.768776 
	C31.012022,29.718561 31.010889,27.372458 31.009758,25.026352 
	C31.008179,24.843277 31.006599,24.660202 30.965286,24.205019 
	C30.925552,23.932911 31.067865,23.880016 31.468365,23.929253 
	C32.557415,23.967178 33.245964,23.955870 34.358452,23.962828 
	C36.850315,23.666613 38.918236,23.352131 41.245152,23.035278 
	C41.848450,23.024864 42.192753,23.016821 42.537060,23.008778 
	C42.653461,23.140213 42.769863,23.271650 42.961449,23.913488 
	C43.025845,24.613758 43.015057,24.803627 43.011543,25.403366 
	C43.365345,28.569971 43.711876,31.326710 44.058407,34.083447 
	C43.987030,34.410488 43.829720,34.688988 42.955872,34.987465 
	C38.197502,33.994652 38.058525,36.754429 38.579868,41.050831 
	C35.536125,38.408920 33.569191,36.701660 31.602257,34.994400 
z"/>
<path fill="#1794CD" opacity="1.000000" stroke="none" 
	d="
M31.491840,35.434196 
	C33.569191,36.701660 35.536125,38.408920 38.579868,41.050831 
	C38.058525,36.754429 38.197502,33.994652 42.740753,35.100018 
	C43.093910,37.757431 43.031590,40.370815 42.911934,43.415695 
	C39.195923,43.884560 35.537251,43.921928 31.416389,43.998161 
	C31.096607,41.316021 31.239016,38.595009 31.491840,35.434196 
z"/>
<path fill="#0993D7" opacity="1.000000" stroke="none" 
	d="
M44.492043,34.061859 
	C43.711876,31.326710 43.365345,28.569971 43.461296,25.405014 
	C44.903538,25.001812 45.943893,24.830204 46.894592,25.048704 
	C48.859852,25.500387 52.338425,25.991184 52.422054,26.765383 
	C52.673767,29.095596 51.595711,31.569448 51.036308,33.987278 
	C48.999432,34.004944 46.962559,34.022610 44.492043,34.061859 
z"/>
<path fill="#46A1C5" opacity="1.000000" stroke="none" 
	d="
M51.215115,34.219910 
	C51.595711,31.569448 52.673767,29.095596 52.422054,26.765383 
	C52.338425,25.991184 48.859852,25.500387 46.894592,25.048704 
	C45.943893,24.830204 44.903538,25.001812 43.454025,24.995144 
	C43.015057,24.803627 43.025845,24.613758 43.089622,24.143551 
	C46.466534,23.888584 49.790459,23.913954 53.572777,23.953724 
	C53.986710,27.330767 53.942249,30.693413 53.775909,34.497581 
	C52.900665,34.776917 52.147293,34.614727 51.215115,34.219910 
z"/>
<path fill="#BFF5FC" opacity="1.000000" stroke="none" 
	d="
M51.733032,43.981133 
	C51.706142,44.115444 51.443226,44.225098 51.102463,44.168701 
	C51.024620,44.002651 51.497002,43.956478 51.733032,43.981133 
z"/>
<path fill="#46A1C5" opacity="1.000000" stroke="none" 
	d="
M55.043392,23.249630 
	C54.874641,23.657444 54.702065,23.753942 54.248493,23.945404 
	C54.008629,22.972010 54.049755,21.903656 54.156105,20.439983 
	C54.494076,21.009214 54.766823,21.973764 55.043392,23.249630 
z"/>
<path fill="#198EC6" opacity="1.000000" stroke="none" 
	d="
M33.934517,23.944561 
	C33.245964,23.955870 32.557415,23.967178 31.527351,23.977032 
	C31.226456,22.263123 31.267071,20.550669 31.185577,18.423975 
	C31.107304,17.572584 31.151136,17.135429 31.275444,16.415722 
	C31.355923,16.133167 31.599272,16.008141 31.731859,15.805576 
	C31.919819,15.122676 31.975189,14.642342 32.030560,14.162006 
	C34.061092,14.090899 36.091625,14.019790 38.771400,14.235635 
	C40.472183,14.730542 41.523731,14.938497 42.575275,15.146451 
	C42.575275,15.146451 42.784428,15.095168 42.887955,15.065947 
	C42.897148,17.402258 42.802811,19.767794 42.622765,22.571053 
	C42.192753,23.016821 41.848450,23.024864 41.202614,22.638077 
	C40.749477,21.772060 40.662403,21.266834 40.434948,20.835659 
	C39.517441,19.096392 40.875595,15.117830 37.124081,16.303577 
	C35.629009,16.776127 34.945419,19.966692 34.015030,21.976679 
	C33.760239,22.527124 33.949192,23.282972 33.934517,23.944561 
z"/>
<path fill="#C4F6FC" opacity="1.000000" stroke="none" 
	d="
M29.011436,14.429678 
	C29.398685,14.072325 29.858074,14.029605 30.663456,13.997593 
	C31.009447,14.008301 30.973442,14.000175 31.036657,14.335794 
	C31.266338,15.116989 31.432806,15.562565 31.599272,16.008141 
	C31.599272,16.008141 31.355923,16.133167 31.226555,16.089075 
	C30.425985,15.611425 29.754782,15.177868 29.011436,14.429678 
z"/>
<path fill="#56CFED" opacity="1.000000" stroke="none" 
	d="
M29.066124,5.810759 
	C29.152208,7.898259 29.553087,10.567639 28.554203,11.283298 
	C27.246904,12.219926 24.647617,12.096502 22.978903,11.454657 
	C22.208086,11.158175 21.808458,7.325513 22.123852,7.192628 
	C24.200998,6.317463 26.518885,6.013675 29.066124,5.810759 
z"/>
<path fill="#0CB4E3" opacity="1.000000" stroke="none" 
	d="
M23.305496,52.780365 
	C21.110594,47.216011 21.732244,45.626293 25.850994,46.109692 
	C27.320284,46.282131 29.392239,47.799923 29.801968,49.130699 
	C30.583157,51.667957 28.900208,53.092545 26.185562,52.993069 
	C25.360987,52.962852 24.536268,52.936455 23.305496,52.780365 
z"/>
<path fill="#0BBFE9" opacity="1.000000" stroke="none" 
	d="
M30.597853,25.030798 
	C31.010889,27.372458 31.012022,29.718561 31.022396,32.501518 
	C29.101898,32.647160 27.048643,32.665771 25.283400,31.961987 
	C23.984303,31.444046 23.061861,29.981375 21.971577,28.939686 
	C22.936790,27.942764 23.732191,26.550440 24.908575,26.045227 
	C26.515841,25.354963 28.413036,25.339804 30.597853,25.030798 
z"/>
<path fill="#46A1C5" opacity="1.000000" stroke="none" 
	d="
M42.706978,14.911263 
	C41.523731,14.938497 40.472183,14.730542 39.205727,14.281713 
	C40.039059,14.029925 41.087303,14.019013 42.525505,14.075282 
	C42.889870,14.320333 42.864273,14.498203 42.706978,14.911263 
z"/>
<path fill="#4BBEDB" opacity="1.000000" stroke="none" 
	d="
M31.731859,15.805576 
	C31.432806,15.562565 31.266338,15.116989 31.034889,14.317228 
	C31.149540,13.981523 31.329170,14.000003 31.769680,14.090244 
	C31.975189,14.642342 31.919819,15.122676 31.731859,15.805576 
z"/>
<path fill="#F2F6F7" opacity="1.000000" stroke="none" 
	d="
M139.208389,80.159401 
	C138.944077,79.986511 139.038940,79.583328 139.087418,79.382057 
	C139.592651,79.402084 140.049423,79.623383 140.506180,79.844681 
	C140.161682,80.007217 139.817200,80.169754 139.208389,80.159401 
z"/>
<path fill="#E4E8EA" opacity="1.000000" stroke="none" 
	d="
M125.793686,80.431236 
	C125.318970,80.558586 124.874565,80.396217 124.224823,80.107544 
	C124.019493,79.981247 124.016922,79.543823 124.064194,79.330383 
	C124.682304,79.458466 125.253151,79.799988 125.793686,80.431236 
z"/>
<path fill="#F8FFFF" opacity="1.000000" stroke="none" 
	d="
M27.752264,36.005424 
	C28.607216,37.797333 29.029579,39.559898 29.451942,41.322468 
	C27.398832,41.486481 25.294394,41.959133 23.323084,41.631287 
	C22.711115,41.529507 21.855104,38.320881 22.145266,38.133106 
	C23.688906,37.134155 25.561172,36.643017 27.752264,36.005424 
z"/>
<path fill="#0596DF" opacity="1.000000" stroke="none" 
	d="
M34.358452,23.962828 
	C33.949192,23.282972 33.760239,22.527124 34.015030,21.976679 
	C34.945419,19.966692 35.629009,16.776127 37.124081,16.303577 
	C40.875595,15.117830 39.517441,19.096392 40.434948,20.835659 
	C40.662403,21.266834 40.749477,21.772060 40.943619,22.640448 
	C38.918236,23.352131 36.850315,23.666613 34.358452,23.962828 
z"/>
</svg>