<svg version="1.0" xmlns="http://www.w3.org/2000/svg"
 width="165.000000pt" height="70.000000pt" viewBox="0 0 165.000000 70.000000"
 preserveAspectRatio="xMidYMid meet">

<g transform="translate(0.000000,70.000000) scale(0.100000,-0.100000)"
fill="#000000" stroke="none">
<path d="M200 565 l0 -45 45 0 45 0 0 -40 0 -40 -45 0 -45 0 0 -40 0 -40 45 0
45 0 0 40 0 40 45 0 45 0 0 40 0 40 -45 0 -45 0 0 45 0 45 -45 0 -45 0 0 -45z"/>
<path d="M7 433 c-4 -3 -7 -21 -7 -40 0 -33 1 -33 45 -33 l45 0 0 40 c0 40 0
40 -38 40 -21 0 -42 -3 -45 -7z"/>
</g>
</svg>
